<?xml version="1.0" encoding="utf-8"?>
<!-- Generator: Adobe Illustrator 23.0.1, SVG Export Plug-In . SVG Version: 6.00 Build 0)  -->
<svg version="1.1" id="Layer_1" xmlns="http://www.w3.org/2000/svg" xmlns:xlink="http://www.w3.org/1999/xlink" x="0px" y="0px"
	 viewBox="0 0 200 200" style="enable-background:new 0 0 200 200;" xml:space="preserve">
<style type="text/css">
	.st0{fill:#543B23;}
	.st1{fill:#EDEDED;}
</style>
<rect x="5.74" y="43.28" class="st0" width="49.85" height="113.44"/>
<path class="st1" d="M21.21,43.28v46.41h-0.85c-2.37,0-4.3-1.92-4.3-4.3V43.28H21.21z"/>
<rect x="28.08" y="43.28" class="st1" width="5.17" height="46.41"/>
<path class="st1" d="M45.28,43.28v42.11c0,1.19-0.49,2.27-1.26,3.04c-0.77,0.77-1.85,1.26-3.04,1.26h-0.85V43.28H45.28z"/>
<path class="st1" d="M45.28,85.39c0,1.19-0.48,2.27-1.25,3.04c-0.77,0.77-1.86,1.25-3.04,1.25H20.35c-2.37,0-4.3-1.92-4.3-4.3
	c0-1.19,0.48-2.27,1.25-3.04c0.77-0.77,1.86-1.25,3.04-1.25h0.86c0,1.89,1.55,3.44,3.44,3.44s3.44-1.55,3.44-3.44h5.16
	c0,1.89,1.55,3.44,3.44,3.44c1.89,0,3.44-1.55,3.44-3.44h0.86C43.35,81.09,45.28,83.02,45.28,85.39z"/>
<rect x="28.08" y="87.97" class="st1" width="5.17" height="68.75"/>
<ellipse class="st1" cx="30.67" cy="87.97" rx="12.89" ry="3.44"/>
<g>
	<path class="st0" d="M104.74,111c-2.84-0.13-7.63-0.19-14.37-0.19c-9.12,0-15.93,0.06-20.45,0.19v-1.25
		c1.38-0.08,2.39-0.25,3.04-0.5c0.65-0.25,1.09-0.73,1.32-1.44c0.23-0.71,0.34-1.86,0.34-3.45V73.23c0-1.59-0.12-2.74-0.34-3.45
		c-0.23-0.71-0.67-1.19-1.32-1.44c-0.65-0.25-1.66-0.42-3.04-0.5v-1.25c4.52,0.13,11.33,0.19,20.45,0.19
		c6.15,0,10.52-0.06,13.11-0.19c-0.29,3.47-0.44,6.57-0.44,9.28c0,1.84,0.06,3.26,0.19,4.27h-1.44c-0.63-4.47-1.76-7.61-3.39-9.41
		c-1.63-1.8-3.93-2.7-6.9-2.7h-2.57c-1.3,0-2.24,0.11-2.82,0.31c-0.59,0.21-0.98,0.62-1.19,1.22c-0.21,0.61-0.31,1.58-0.31,2.92
		v15.56h2.01c2.22,0,3.9-0.82,5.05-2.45c1.15-1.63,1.95-3.58,2.41-5.83h1.44c-0.12,1.76-0.19,3.72-0.19,5.9v3.01
		c0,2.13,0.13,5.1,0.38,8.91h-1.44c-0.88-5.52-3.43-8.28-7.65-8.28H84.6v15.81c0,1.34,0.1,2.31,0.31,2.92
		c0.21,0.61,0.61,1.01,1.19,1.22c0.59,0.21,1.53,0.31,2.82,0.31H92c2.97,0,5.36-1.01,7.18-3.04c1.82-2.03,3.11-5.47,3.86-10.32h1.44
		c-0.13,1.38-0.19,3.14-0.19,5.27C104.3,105.31,104.45,108.49,104.74,111z"/>
	<path class="st0" d="M134.91,79.38c0.96,1.13,1.44,2.49,1.44,4.08c0,1.55-0.45,2.81-1.35,3.79c-0.9,0.98-2.08,1.47-3.54,1.47
		c-1.42,0-2.55-0.37-3.39-1.1c-0.84-0.73-1.26-1.7-1.26-2.92c0-2.01,0.92-3.64,2.76-4.89c-0.17-0.04-0.42-0.06-0.75-0.06
		c-0.42,0-0.75,0.04-1,0.13c-1.59,0.25-2.94,1.21-4.05,2.89c-1.11,1.67-1.66,3.39-1.66,5.14v16.62c0,1.92,0.47,3.26,1.41,4.01
		c0.94,0.75,2.44,1.13,4.48,1.13V111c-0.58,0-1.06-0.02-1.44-0.06c-4.27-0.13-7.11-0.19-8.53-0.19c-1.13,0-3.7,0.06-7.72,0.19
		c-0.33,0.04-0.75,0.06-1.25,0.06v-1.32c1.5,0,2.55-0.32,3.14-0.97c0.59-0.65,0.88-1.83,0.88-3.54V85.4c0-1.92-0.29-3.32-0.88-4.2
		c-0.59-0.88-1.63-1.32-3.14-1.32v-1.32c1.34,0.13,2.63,0.19,3.89,0.19c3.72,0,6.78-0.29,9.16-0.88v5.83
		c0.79-1.8,1.94-3.25,3.45-4.36c1.5-1.11,3.2-1.66,5.08-1.66C132.53,77.69,133.95,78.25,134.91,79.38z"/>
	<path class="st0" d="M164.21,101.71l1.13,0.38c-0.84,2.72-2.33,5.03-4.49,6.93c-2.15,1.9-4.84,2.85-8.06,2.85
		c-4.43,0-7.96-1.41-10.57-4.23c-2.61-2.82-3.92-6.99-3.92-12.51c0-5.65,1.4-9.96,4.2-12.95c2.8-2.99,6.52-4.49,11.17-4.49
		c7.86,0,11.79,4.64,11.79,13.93h-17.63c-0.04,0.63-0.06,1.61-0.06,2.95c0,2.76,0.39,5.06,1.16,6.9c0.77,1.84,1.78,3.18,3.01,4.01
		c1.23,0.84,2.56,1.25,3.98,1.25C159.36,106.73,162.12,105.06,164.21,101.71z M149.56,81.8c-0.98,1.86-1.6,4.74-1.85,8.63h9.85
		c0.08-3.3-0.24-6.03-0.97-8.19c-0.73-2.15-1.83-3.23-3.29-3.23C151.79,79.01,150.54,79.94,149.56,81.8z"/>
	<path class="st0" d="M185.91,78.28c1.34,0.4,2.36,0.85,3.07,1.35c0.42,0.29,0.79,0.44,1.13,0.44c0.38,0,0.7-0.2,0.97-0.6
		c0.27-0.4,0.45-0.97,0.53-1.72h1.32c-0.17,2.13-0.25,5.81-0.25,11.04h-1.32c-0.38-2.76-1.2-5.07-2.48-6.93
		c-1.28-1.86-3.13-2.79-5.55-2.79c-1.26,0-2.29,0.36-3.11,1.07c-0.82,0.71-1.22,1.69-1.22,2.95c0,1.42,0.48,2.65,1.44,3.67
		c0.96,1.03,2.47,2.27,4.52,3.73l1.82,1.32c2.55,1.92,4.43,3.64,5.65,5.14c1.21,1.5,1.82,3.39,1.82,5.65c0,1.84-0.53,3.47-1.6,4.89
		c-1.07,1.42-2.5,2.51-4.3,3.26c-1.8,0.75-3.79,1.13-5.96,1.13c-2.3,0-4.27-0.44-5.9-1.32c-1.34-0.67-2.3-1.11-2.89-1.32
		c-0.42-0.13-0.78,0.01-1.1,0.41c-0.31,0.4-0.55,0.99-0.72,1.79h-1.32c0.17-2.38,0.25-6.57,0.25-12.55h1.32
		c0.84,7.7,3.66,11.54,8.47,11.54c1.21,0,2.25-0.37,3.11-1.1c0.86-0.73,1.29-1.85,1.29-3.36c0-1.17-0.26-2.22-0.78-3.14
		c-0.52-0.92-1.18-1.73-1.98-2.45c-0.8-0.71-1.99-1.69-3.58-2.95c-1.88-1.51-3.31-2.72-4.3-3.64c-0.98-0.92-1.82-2.01-2.51-3.26
		s-1.03-2.66-1.03-4.2c0-2.68,1.05-4.79,3.14-6.34c2.09-1.55,4.64-2.32,7.65-2.32C183.11,77.69,184.57,77.89,185.91,78.28z"/>
</g>
<g>
	<path class="st0" d="M106.34,125.25l-0.21,0.76c-0.25-0.2-0.59-0.29-1.04-0.29c-0.41,0-0.8,0.13-1.16,0.38
		c-0.36,0.26-0.65,0.61-0.87,1.07c-0.22,0.46-0.33,0.97-0.33,1.53v4.55h-0.81v-8.12h0.68l0.1,1.66c0.23-0.57,0.56-1.02,1.01-1.34
		c0.45-0.32,0.99-0.48,1.62-0.48C105.75,124.97,106.09,125.06,106.34,125.25z"/>
	<path class="st0" d="M114.38,129.53h-6.45c0.05,1,0.35,1.77,0.88,2.33c0.54,0.56,1.25,0.84,2.15,0.84c0.64,0,1.19-0.13,1.65-0.39
		c0.46-0.26,0.79-0.63,1-1.1l0.68,0.36c-0.3,0.6-0.74,1.05-1.3,1.37c-0.56,0.32-1.24,0.48-2.03,0.48c-1.2,0-2.14-0.37-2.82-1.12
		c-0.68-0.75-1.01-1.78-1.01-3.1c0-1.32,0.33-2.35,0.98-3.1c0.65-0.75,1.57-1.12,2.75-1.12c1.1,0,1.97,0.37,2.6,1.1
		s0.94,1.71,0.94,2.92C114.41,129.18,114.4,129.36,114.38,129.53z M108.79,126.51c-0.51,0.55-0.8,1.31-0.86,2.3h5.71
		c-0.05-0.97-0.32-1.74-0.8-2.29c-0.48-0.55-1.14-0.83-1.97-0.83C109.99,125.69,109.3,125.96,108.79,126.51z"/>
	<path class="st0" d="M117.23,132.93c-0.61-0.33-1.02-0.8-1.25-1.41l0.67-0.44c0.16,0.54,0.49,0.95,0.99,1.22
		c0.5,0.27,1.11,0.41,1.83,0.41c0.74,0,1.31-0.14,1.73-0.42c0.42-0.28,0.62-0.66,0.62-1.12c0-0.4-0.18-0.72-0.54-0.96
		c-0.36-0.24-0.99-0.44-1.88-0.6c-1.14-0.2-1.94-0.48-2.4-0.83c-0.47-0.35-0.7-0.84-0.7-1.48c0-0.42,0.13-0.81,0.39-1.17
		c0.26-0.36,0.63-0.64,1.1-0.84c0.48-0.21,1.02-0.31,1.62-0.31c0.85,0,1.54,0.16,2.05,0.49c0.51,0.33,0.87,0.82,1.06,1.49l-0.7,0.41
		c-0.3-1.11-1.11-1.67-2.42-1.67c-0.43,0-0.82,0.07-1.18,0.21c-0.35,0.14-0.63,0.33-0.83,0.56c-0.2,0.23-0.3,0.48-0.3,0.76
		c0,0.44,0.18,0.79,0.55,1.04c0.37,0.25,1.02,0.45,1.95,0.62c1.1,0.18,1.88,0.45,2.34,0.8c0.45,0.35,0.68,0.83,0.68,1.46
		c0,0.69-0.29,1.25-0.88,1.66c-0.59,0.42-1.38,0.62-2.38,0.62C118.55,133.41,117.84,133.25,117.23,132.93z"/>
	<path class="st0" d="M129.41,132.73c-0.22,0.22-0.48,0.38-0.8,0.5c-0.31,0.12-0.66,0.18-1.04,0.18c-0.66,0-1.18-0.18-1.55-0.54
		c-0.37-0.36-0.56-0.91-0.56-1.65v-5.39h-1.62v-0.7h1.62v-2.03l0.81-0.23v2.26h3.05v0.7h-3.05v5.28c0,0.51,0.12,0.9,0.36,1.16
		c0.24,0.26,0.6,0.4,1.06,0.4c0.54,0,1.01-0.2,1.41-0.6L129.41,132.73z"/>
	<path class="st0" d="M137.23,126.1c0.69,0.75,1.03,1.78,1.03,3.09s-0.34,2.34-1.03,3.09c-0.69,0.75-1.63,1.13-2.83,1.13
		c-1.2,0-2.15-0.38-2.83-1.13c-0.69-0.75-1.03-1.78-1.03-3.09s0.34-2.34,1.03-3.09c0.69-0.75,1.63-1.13,2.83-1.13
		C135.6,124.97,136.54,125.35,137.23,126.1z M132.15,126.61c-0.54,0.63-0.81,1.49-0.81,2.58c0,1.09,0.27,1.95,0.81,2.58
		c0.54,0.63,1.29,0.94,2.24,0.94s1.7-0.31,2.24-0.94c0.54-0.63,0.81-1.49,0.81-2.58c0-1.09-0.27-1.95-0.81-2.58
		c-0.54-0.63-1.29-0.94-2.24-0.94S132.7,125.98,132.15,126.61z"/>
	<path class="st0" d="M145.06,125.25l-0.21,0.76c-0.25-0.2-0.6-0.29-1.04-0.29c-0.41,0-0.8,0.13-1.16,0.38
		c-0.36,0.26-0.65,0.61-0.88,1.07c-0.22,0.46-0.33,0.97-0.33,1.53v4.55h-0.81v-8.12h0.68l0.1,1.66c0.23-0.57,0.57-1.02,1.01-1.34
		c0.45-0.32,0.99-0.48,1.62-0.48C144.47,124.97,144.81,125.06,145.06,125.25z"/>
	<path class="st0" d="M153.72,132.6l-0.05,0.65c-0.2,0.11-0.46,0.16-0.8,0.16c-0.38,0-0.69-0.1-0.93-0.31
		c-0.24-0.2-0.37-0.56-0.41-1.07c-0.25,0.43-0.65,0.77-1.2,1.01c-0.55,0.24-1.13,0.37-1.74,0.37c-0.8,0-1.44-0.18-1.92-0.54
		c-0.48-0.36-0.72-0.87-0.72-1.53c0-1.26,1.03-2.07,3.09-2.44l2.48-0.44v-0.71c0-0.65-0.19-1.16-0.58-1.53
		c-0.38-0.37-0.93-0.55-1.63-0.55c-1.29,0-2.16,0.57-2.6,1.72l-0.62-0.45c0.24-0.64,0.63-1.13,1.19-1.47
		c0.55-0.34,1.23-0.51,2.03-0.51c0.94,0,1.68,0.23,2.22,0.69c0.54,0.46,0.8,1.13,0.8,2.01v4.19c0,0.57,0.25,0.86,0.75,0.86
		C153.35,132.72,153.56,132.68,153.72,132.6z M150.01,132.46c0.43-0.16,0.79-0.39,1.08-0.7c0.29-0.31,0.43-0.68,0.43-1.11v-1.51
		l-2.23,0.41c-0.88,0.16-1.52,0.39-1.92,0.68c-0.4,0.29-0.6,0.67-0.6,1.12c0,0.43,0.17,0.77,0.5,1c0.33,0.23,0.8,0.35,1.4,0.35
		C149.14,132.7,149.58,132.62,150.01,132.46z"/>
	<path class="st0" d="M161.42,125.75c0.57,0.52,0.85,1.27,0.85,2.24v5.26h-0.81v-5c0-0.87-0.21-1.51-0.63-1.93
		c-0.42-0.42-1-0.63-1.74-0.63c-0.52,0-1,0.12-1.45,0.36c-0.44,0.24-0.8,0.58-1.06,1.04c-0.27,0.45-0.4,0.98-0.4,1.59v4.58h-0.81
		v-8.12h0.73l0.03,1.64c0.26-0.58,0.66-1.03,1.19-1.34c0.54-0.31,1.15-0.46,1.84-0.46C160.1,124.97,160.85,125.23,161.42,125.75z"/>
</g>
</svg>
